<svg width="128" height="26" viewBox="0 0 128 26" fill="none" xmlns="http://www.w3.org/2000/svg">
<path d="M20.1369 26C22.8983 26 25.1842 23.7425 24.6732 21.0288C24.3528 19.3274 23.8679 17.6594 23.2235 16.0502C21.9602 12.8958 20.1087 10.0295 17.7745 7.61522C15.4403 5.2009 12.6692 3.28575 9.61949 1.97913C8.11383 1.33406 6.55481 0.843537 4.96489 0.512195C2.26154 -0.0511833 0 2.23858 0 5V21C0 23.7614 2.23858 26 5 26H20.1369Z" fill="#615DFF"/>
<g style="mix-blend-mode:multiply">
<path d="M13.7013 26C10.9399 26 8.65395 23.7425 9.16502 21.0288C9.48544 19.3274 9.97031 17.6594 10.6147 16.0502C11.878 12.8958 13.7295 10.0295 16.0637 7.61522C18.3979 5.2009 21.169 3.28575 24.2187 1.97913C25.7244 1.33406 27.2834 0.843537 28.8733 0.512195C31.5767 -0.0511833 33.8382 2.23858 33.8382 5V21C33.8382 23.7614 31.5996 26 28.8382 26H13.7013Z" fill="#3DD9EB"/>
</g>
<path d="M46.176 5.16H49.176V18.348H55.116V21H46.176V5.16ZM59.8329 16.752C59.8569 17.2 59.9769 17.6 60.1929 17.952C60.4089 18.304 60.7209 18.58 61.1289 18.78C61.5449 18.98 62.0409 19.08 62.6169 19.08C63.1369 19.08 63.5929 19.016 63.9849 18.888C64.3849 18.76 64.7209 18.604 64.9929 18.42C65.2729 18.228 65.4809 18.044 65.6169 17.868L66.8769 19.74C66.6529 20.02 66.3529 20.28 65.9769 20.52C65.6089 20.752 65.1369 20.936 64.5609 21.072C63.9929 21.216 63.2809 21.288 62.4249 21.288C61.3449 21.288 60.3969 21.076 59.5809 20.652C58.7649 20.228 58.1289 19.616 57.6729 18.816C57.2169 18.016 56.9889 17.064 56.9889 15.96C56.9889 15 57.1929 14.136 57.6009 13.368C58.0089 12.592 58.6009 11.98 59.3769 11.532C60.1609 11.084 61.1009 10.86 62.1969 10.86C63.2289 10.86 64.1209 11.06 64.8729 11.46C65.6329 11.852 66.2209 12.428 66.6369 13.188C67.0529 13.948 67.2609 14.876 67.2609 15.972C67.2609 16.036 67.2569 16.168 67.2489 16.368C67.2489 16.56 67.2409 16.688 67.2249 16.752H59.8329ZM64.4049 14.868C64.3969 14.612 64.3169 14.336 64.1649 14.04C64.0209 13.744 63.7929 13.492 63.4809 13.284C63.1689 13.076 62.7529 12.972 62.2329 12.972C61.7129 12.972 61.2849 13.072 60.9489 13.272C60.6209 13.472 60.3729 13.72 60.2049 14.016C60.0369 14.304 59.9409 14.588 59.9169 14.868H64.4049ZM72.3911 21H69.3311V4.488H72.3911V21ZM77.247 16.752C77.271 17.2 77.391 17.6 77.607 17.952C77.823 18.304 78.135 18.58 78.543 18.78C78.959 18.98 79.455 19.08 80.031 19.08C80.551 19.08 81.007 19.016 81.399 18.888C81.799 18.76 82.135 18.604 82.407 18.42C82.687 18.228 82.895 18.044 83.031 17.868L84.291 19.74C84.067 20.02 83.767 20.28 83.391 20.52C83.023 20.752 82.551 20.936 81.975 21.072C81.407 21.216 80.695 21.288 79.839 21.288C78.759 21.288 77.811 21.076 76.995 20.652C76.179 20.228 75.543 19.616 75.087 18.816C74.631 18.016 74.403 17.064 74.403 15.96C74.403 15 74.607 14.136 75.015 13.368C75.423 12.592 76.015 11.98 76.791 11.532C77.575 11.084 78.515 10.86 79.611 10.86C80.643 10.86 81.535 11.06 82.287 11.46C83.047 11.852 83.635 12.428 84.051 13.188C84.467 13.948 84.675 14.876 84.675 15.972C84.675 16.036 84.671 16.168 84.663 16.368C84.663 16.56 84.655 16.688 84.639 16.752H77.247ZM81.819 14.868C81.811 14.612 81.731 14.336 81.579 14.04C81.435 13.744 81.207 13.492 80.895 13.284C80.583 13.076 80.167 12.972 79.647 12.972C79.127 12.972 78.699 13.072 78.363 13.272C78.035 13.472 77.787 13.72 77.619 14.016C77.451 14.304 77.355 14.588 77.331 14.868H81.819ZM98.4572 21.612C98.9132 21.612 99.3172 21.556 99.6692 21.444C100.029 21.34 100.317 21.228 100.533 21.108C100.749 20.996 100.873 20.92 100.905 20.88L101.973 22.896C101.749 23.232 101.341 23.564 100.749 23.892C100.157 24.22 99.3972 24.384 98.4692 24.384C97.8932 24.384 97.4012 24.316 96.9932 24.18C96.5852 24.052 96.2052 23.9 95.8532 23.724C95.5092 23.556 95.1372 23.404 94.7372 23.268C94.3372 23.14 93.8572 23.076 93.2972 23.076C92.8012 23.076 92.3652 23.156 91.9892 23.316C91.6132 23.476 91.3132 23.636 91.0892 23.796C90.8732 23.956 90.7572 24.052 90.7412 24.084L89.4452 22.572C89.9492 22.044 90.5732 21.608 91.3172 21.264C92.0692 20.928 92.9292 20.76 93.8972 20.76C94.5452 20.76 95.1132 20.832 95.6012 20.976C96.0892 21.12 96.5572 21.26 97.0052 21.396C97.4532 21.54 97.9372 21.612 98.4572 21.612ZM89.2412 13.068C89.2412 14.076 89.4492 14.988 89.8652 15.804C90.2892 16.62 90.8692 17.268 91.6052 17.748C92.3412 18.22 93.1932 18.456 94.1612 18.456C95.1292 18.456 95.9812 18.22 96.7172 17.748C97.4612 17.268 98.0412 16.62 98.4572 15.804C98.8732 14.988 99.0812 14.076 99.0812 13.068C99.0812 12.06 98.8732 11.152 98.4572 10.344C98.0412 9.528 97.4612 8.88 96.7172 8.4C95.9812 7.92 95.1292 7.68 94.1612 7.68C93.1932 7.68 92.3412 7.92 91.6052 8.4C90.8692 8.88 90.2892 9.528 89.8652 10.344C89.4492 11.152 89.2412 12.06 89.2412 13.068ZM86.1212 13.068C86.1212 11.916 86.3212 10.844 86.7212 9.852C87.1292 8.852 87.6972 7.98 88.4252 7.236C89.1532 6.492 90.0052 5.912 90.9812 5.496C91.9652 5.08 93.0252 4.872 94.1612 4.872C95.3132 4.872 96.3772 5.08 97.3532 5.496C98.3292 5.912 99.1772 6.492 99.8972 7.236C100.625 7.98 101.189 8.852 101.589 9.852C101.989 10.844 102.189 11.916 102.189 13.068C102.189 14.228 101.993 15.308 101.601 16.308C101.209 17.3 100.653 18.172 99.9332 18.924C99.2132 19.668 98.3652 20.248 97.3892 20.664C96.4132 21.08 95.3372 21.288 94.1612 21.288C92.9692 21.288 91.8812 21.08 90.8972 20.664C89.9212 20.248 89.0732 19.668 88.3532 18.924C87.6412 18.172 87.0892 17.3 86.6972 16.308C86.3132 15.308 86.1212 14.228 86.1212 13.068ZM106.922 15.864C106.922 16.744 107.098 17.448 107.45 17.976C107.802 18.496 108.37 18.756 109.154 18.756C109.946 18.756 110.518 18.496 110.87 17.976C111.222 17.448 111.398 16.744 111.398 15.864V11.148H114.398V16.212C114.398 17.228 114.194 18.12 113.786 18.888C113.378 19.648 112.782 20.24 111.998 20.664C111.222 21.08 110.274 21.288 109.154 21.288C108.042 21.288 107.094 21.08 106.31 20.664C105.534 20.24 104.942 19.648 104.534 18.888C104.126 18.12 103.922 17.228 103.922 16.212V11.148H106.922V15.864ZM119.13 16.752C119.154 17.2 119.274 17.6 119.49 17.952C119.706 18.304 120.018 18.58 120.426 18.78C120.842 18.98 121.338 19.08 121.914 19.08C122.434 19.08 122.89 19.016 123.282 18.888C123.682 18.76 124.018 18.604 124.29 18.42C124.57 18.228 124.778 18.044 124.914 17.868L126.174 19.74C125.95 20.02 125.65 20.28 125.274 20.52C124.906 20.752 124.434 20.936 123.858 21.072C123.29 21.216 122.578 21.288 121.722 21.288C120.642 21.288 119.694 21.076 118.878 20.652C118.062 20.228 117.426 19.616 116.97 18.816C116.514 18.016 116.286 17.064 116.286 15.96C116.286 15 116.49 14.136 116.898 13.368C117.306 12.592 117.898 11.98 118.674 11.532C119.458 11.084 120.398 10.86 121.494 10.86C122.526 10.86 123.418 11.06 124.17 11.46C124.93 11.852 125.518 12.428 125.934 13.188C126.35 13.948 126.558 14.876 126.558 15.972C126.558 16.036 126.554 16.168 126.546 16.368C126.546 16.56 126.538 16.688 126.522 16.752H119.13ZM123.702 14.868C123.694 14.612 123.614 14.336 123.462 14.04C123.318 13.744 123.09 13.492 122.778 13.284C122.466 13.076 122.05 12.972 121.53 12.972C121.01 12.972 120.582 13.072 120.246 13.272C119.918 13.472 119.67 13.72 119.502 14.016C119.334 14.304 119.238 14.588 119.214 14.868H123.702Z" fill="#11142D"/>
</svg>
